# File created by Blade
# Date/Time:  Mon Nov 18 18:33:23 2013
# Frame Rate: 100.000 fps
#------------------------------------------------------
:FULLY-SPECIFIED
:DEGREES
76
root 53.741800 -0.131619 50.902705 -4.803055 4.313900 -124.320601
Spine 8.945263 -0.480955 -1.060658
Spine1 2.542231 1.537999 -2.504500
Spine2 0.799451 -2.649595 -2.625097
NeckDummy 0.004106 -0.036455 -0.020863 -0.847481 2.191165 -0.822183
Neck 18.754330 -1.377197 28.596198
Head -0.368615 0.319625 0.198203 -33.823322 -5.091096 -1.054196
LeftShoulderDummy -0.061451 -0.035911 -0.007777 -0.825311 2.076600 -0.663626
LeftShoulder 8.878873 -4.633694 15.458537
LeftArm 8.666236 42.329763 19.874862
LeftForeArm 90.453032
LeftForeArmRoll -31.038402
LeftHand -9.204822 5.042322 -2.478663
LeftHandThumb1 15.289228 13.612777
LeftHandIndex1 16.062682 42.540882
LeftHandPinky1 13.882118 47.092258
RightShoulderDummy -0.041758 -0.005578 0.057135 -0.868972 -2.201364 0.843755
RightShoulder 7.170369 4.576438 19.584532
RightArm -53.977937 62.820814 -12.977554
RightForeArm 112.639026
RightForeArmRoll 4.911811
RightHand -17.390212 -14.714795 11.414279
RightHandThumb1 -0.780819 13.291924
RightHandIndex1 13.275417 60.819884
RightHandPinky1 18.611898 68.557693
LeftUpLeg 10.821169 15.564200 -18.504339
LeftLeg 40.692428
LeftFoot 0.315617 -1.038580 -0.604025 -11.322684 6.343800 -5.960861
LeftToeBase -3.186570
RightUpLeg 17.896255 12.892722 -9.902636
RightLeg 39.491244
RightFoot -0.289981 0.240300 0.215135 -2.746644 2.312548 -23.388116
RightToeBase -1.273857
77
root 53.815253 -0.174504 50.891949 -4.766967 4.460101 -124.217370
Spine 9.128113 -0.559140 -1.100158
Spine1 2.564171 1.512743 -2.627847
Spine2 0.774252 -2.691210 -2.620671
NeckDummy 0.003984 -0.030399 -0.020316 -0.895232 2.188647 -0.833606
Neck 18.529972 -1.464745 28.737441
Head -0.367172 0.313601 0.201981 -33.867019 -5.095755 -1.051205
LeftShoulderDummy -0.062502 -0.029690 -0.005534 -0.873946 2.074130 -0.672749
LeftShoulder 8.732255 -4.540455 15.369079
LeftArm 8.916780 42.587646 19.866153
LeftForeArm 90.460396
LeftForeArmRoll -31.146785
LeftHand -9.227487 5.015884 -2.571265
LeftHandThumb1 15.429263 13.195878
LeftHandIndex1 16.052146 42.800729
LeftHandPinky1 13.981490 47.281076
RightShoulderDummy -0.042180 0.001099 0.059677 -0.916672 -2.199383 0.855115
RightShoulder 7.129301 4.606046 19.460138
RightArm -53.687445 63.045142 -12.780695
RightForeArm 112.635844
RightForeArmRoll 5.224658
RightHand -17.445747 -14.860329 11.504945
RightHandThumb1 -0.304674 13.589024
RightHandIndex1 13.138348 61.248553
RightHandPinky1 18.288316 68.783714
LeftUpLeg 10.681193 15.638317 -19.111636
LeftLeg 41.432272
LeftFoot 0.315375 -1.051032 -0.590806 -10.700331 6.729910 -7.182036
LeftToeBase -3.608453
RightUpLeg 18.222943 13.264500 -10.396482
RightLeg 40.260408
RightFoot -0.290141 0.267828 0.232512 -2.914935 1.933011 -23.607381
RightToeBase -1.275467
78
root 53.886280 -0.223468 50.890157 -4.713957 4.609506 -124.123191
Spine 9.321548 -0.651278 -1.116773
Spine1 2.584793 1.472595 -2.691627
Spine2 0.761848 -2.700646 -2.613423
NeckDummy 0.003863 -0.026409 -0.020228 -0.961298 2.181129 -0.838912
Neck 18.208515 -1.536926 28.811129
Head -0.366944 0.307389 0.206118 -33.845642 -5.139909 -1.051618
LeftShoulderDummy -0.063459 -0.025370 -0.002556 -0.940045 2.065715 -0.674486
LeftShoulder 8.656386 -4.447492 15.273229
LeftArm 9.263921 42.833561 19.983830
LeftForeArm 90.482183
LeftForeArmRoll -31.233907
LeftHand -9.255493 5.146338 -2.621259
LeftHandThumb1 15.574599 12.828510
LeftHandIndex1 15.980548 42.711007
LeftHandPinky1 13.955601 47.187961
RightShoulderDummy -0.043085 0.005646 0.061991 -0.983604 -2.190383 0.857649
RightShoulder 6.935230 4.634039 19.404389
RightArm -53.700335 63.144668 -12.935181
RightForeArm 112.674969
RightForeArmRoll 5.059391
RightHand -17.455624 -14.308375 11.387304
RightHandThumb1 -0.888567 13.228859
RightHandIndex1 13.440701 60.544805
RightHandPinky1 18.503000 68.125546
LeftUpLeg 10.565629 15.722152 -19.717929
LeftLeg 42.130991
LeftFoot 0.329143 -1.066356 -0.598846 -10.478173 7.469213 -8.544006
LeftToeBase -3.729618
RightUpLeg 18.584000 13.680249 -10.932717
RightLeg 41.063480
RightFoot -0.299860 0.288142 0.255080 -3.129975 1.502595 -23.754371
RightToeBase -1.362005
79
root 53.951996 -0.278987 50.889325 -4.679621 4.737343 -124.025328
Spine 9.537009 -0.710429 -1.156927
Spine1 2.602695 1.445181 -2.795276
Spine2 0.725406 -2.732984 -2.593576
NeckDummy 0.003653 -0.020430 -0.019420 -1.035257 2.165838 -0.849649
Neck 17.931408 -1.616996 28.925590
Head -0.368173 0.301522 0.210712 -33.910967 -5.127012 -1.065073
LeftShoulderDummy -0.064092 -0.019023 0.001439 -1.014576 2.050394 -0.684256
LeftShoulder 8.606921 -4.400136 15.183837
LeftArm 9.547762 43.009418 20.035744
LeftForeArm 90.485883
LeftForeArmRoll -31.449576
LeftHand -9.196340 4.963652 -2.667121
LeftHandThumb1 15.660336 12.946960
LeftHandIndex1 15.992245 42.965703
LeftHandPinky1 14.049795 47.650629
RightShoulderDummy -0.043819 0.012369 0.065558 -1.057711 -2.175405 0.867629
RightShoulder 6.982552 4.653758 19.355428
RightArm -53.226988 63.314768 -12.526025
RightForeArm 112.734810
RightForeArmRoll 5.042768
RightHand -17.428494 -14.744431 11.346120
RightHandThumb1 -0.702845 13.595283
RightHandIndex1 13.687293 61.112436
RightHandPinky1 18.734411 68.611165
LeftUpLeg 10.537857 15.856340 -20.287165
LeftLeg 42.787541
LeftFoot 0.340929 -1.080584 -0.588714 -10.071422 8.226438 -9.562531
LeftToeBase -4.011453
RightUpLeg 18.894105 14.072362 -11.465558
RightLeg 41.901543
RightFoot -0.306973 0.316258 0.276951 -3.358623 1.157155 -24.003013
RightToeBase -1.350248
80
root 54.021162 -0.342903 50.892944 -4.603226 4.856102 -123.973223
Spine 9.719918 -0.783839 -1.172049
Spine1 2.622624 1.413487 -2.847750
Spine2 0.709214 -2.721709 -2.577039
NeckDummy 0.003434 -0.015363 -0.019204 -1.097532 2.149416 -0.849423
Neck 17.613774 -1.727827 28.966477
Head -0.366130 0.297081 0.215610 -33.979692 -5.134613 -1.020082
LeftShoulderDummy -0.064436 -0.013378 0.004449 -1.077391 2.033901 -0.682597
LeftShoulder 8.544826 -4.357593 15.069826
LeftArm 9.894421 43.245138 20.111771
LeftForeArm 90.467782
LeftForeArmRoll -31.565544
LeftHand -9.259378 5.047034 -2.700045
LeftHandThumb1 15.553117 13.141396
LeftHandIndex1 16.009701 42.720269
LeftHandPinky1 14.045785 47.301279
RightShoulderDummy -0.044427 0.017914 0.067890 -1.120537 -2.158537 0.865487
RightShoulder 6.923079 4.687163 19.313778
RightArm -52.876160 63.429775 -12.372020
RightForeArm 112.874260
RightForeArmRoll 5.566718
RightHand -17.689048 -14.219377 11.439797
RightHandThumb1 -0.484662 13.306242
RightHandIndex1 13.362328 60.757139
RightHandPinky1 18.397625 68.197924
LeftUpLeg 10.502674 16.034458 -20.869575
LeftLeg 43.388075
LeftFoot 0.347163 -1.085457 -0.572977 -9.570420 9.079743 -10.284266
LeftToeBase -3.726235
RightUpLeg 19.168728 14.464661 -12.046027
RightLeg 42.740589
RightFoot -0.307410 0.335859 0.298345 -3.564773 0.771034 -24.247210
RightToeBase -1.405124
